<?xml version="1.0" encoding="UTF-8" standalone="no"?>
<!-- Created with Inkscape (http://www.inkscape.org/) -->

<svg
   xmlns:dc="http://purl.org/dc/elements/1.1/"
   xmlns:cc="http://creativecommons.org/ns#"
   xmlns:rdf="http://www.w3.org/1999/02/22-rdf-syntax-ns#"
   xmlns:svg="http://www.w3.org/2000/svg"
   xmlns="http://www.w3.org/2000/svg"
   xmlns:sodipodi="http://sodipodi.sourceforge.net/DTD/sodipodi-0.dtd"
   xmlns:inkscape="http://www.inkscape.org/namespaces/inkscape"
   id="svg3406"
   version="1.1"
   inkscape:version="0.91 r13725"
   width="378.80899"
   height="512.00037"
   viewBox="0 0 378.80899 512.00037"
   sodipodi:docname="silhouette-basket-08.svg">
  <title
     id="title3340">Silhouette Basket 08</title>
  <metadata
     id="metadata3412">
    <rdf:RDF>
      <cc:Work
         rdf:about="">
        <dc:format>image/svg+xml</dc:format>
        <dc:type
           rdf:resource="http://purl.org/dc/dcmitype/StillImage" />
        <dc:title>Silhouette Basket 08</dc:title>
        <cc:license
           rdf:resource="http://creativecommons.org/publicdomain/zero/1.0/" />
        <dc:date>2017-03-26</dc:date>
        <dc:creator>
          <cc:Agent>
            <dc:title>JLouis</dc:title>
          </cc:Agent>
        </dc:creator>
        <dc:rights>
          <cc:Agent>
            <dc:title>Domaine pubic</dc:title>
          </cc:Agent>
        </dc:rights>
        <dc:publisher>
          <cc:Agent>
            <dc:title>inkscape</dc:title>
          </cc:Agent>
        </dc:publisher>
        <dc:subject>
          <rdf:Bag>
            <rdf:li>silhouette</rdf:li>
            <rdf:li>Basketball</rdf:li>
            <rdf:li>player</rdf:li>
            <rdf:li>sport</rdf:li>
            <rdf:li>basket</rdf:li>
            <rdf:li>joueurs</rdf:li>
          </rdf:Bag>
        </dc:subject>
        <dc:description>Basketball player in silhouette - Joueur de basket en silhouette</dc:description>
      </cc:Work>
      <cc:License
         rdf:about="http://creativecommons.org/publicdomain/zero/1.0/">
        <cc:permits
           rdf:resource="http://creativecommons.org/ns#Reproduction" />
        <cc:permits
           rdf:resource="http://creativecommons.org/ns#Distribution" />
        <cc:permits
           rdf:resource="http://creativecommons.org/ns#DerivativeWorks" />
      </cc:License>
    </rdf:RDF>
  </metadata>
  <defs
     id="defs3410" />
  <sodipodi:namedview
     pagecolor="#ffffff"
     bordercolor="#666666"
     borderopacity="1"
     objecttolerance="10"
     gridtolerance="10"
     guidetolerance="10"
     inkscape:pageopacity="0"
     inkscape:pageshadow="2"
     inkscape:window-width="1237"
     inkscape:window-height="756"
     id="namedview3408"
     showgrid="false"
     fit-margin-top="0"
     fit-margin-left="0"
     fit-margin-right="0"
     fit-margin-bottom="0"
     inkscape:zoom="0.66962963"
     inkscape:cx="-119.87145"
     inkscape:cy="258.89948"
     inkscape:window-x="0"
     inkscape:window-y="0"
     inkscape:window-maximized="1"
     inkscape:current-layer="svg3406" />
  <g
     id="g3416"
     transform="matrix(0.60849208,0,0,0.60849208,-0.00579746,-0.65420018)">
    <path
       style="fill:#d7e7f3"
       d="m 437.18501,840.3125 c -3.76966,-4.22349 -4.85165,-12.21918 -3.98362,-29.43815 l 0.83175,-16.49935 -5.26271,-11.11859 c -2.89451,-6.11521 -6.06458,-13.81868 -7.04462,-17.11882 -2.14357,-7.21823 -6.19192,-10.7169 -13.70416,-11.84343 -6.1541,-0.92286 -8.39503,-2.85369 -4.4955,-3.87343 2.09997,-0.54915 2.41114,-1.37918 1.83892,-4.90529 -0.38713,-2.38568 -0.0637,-4.99736 0.7385,-5.96401 1.07796,-1.29884 1.04108,-2.01492 -0.15066,-2.92583 -1.90091,-1.45297 -11.7228,-5.95671 -15.64041,-7.17177 -1.54688,-0.47977 -2.8125,-1.39689 -2.8125,-2.03807 0,-1.4375 -0.55583,-1.49691 6.76116,0.72277 7.8545,2.38275 8.13441,2.35713 7.34234,-0.67174 -0.36435,-1.39328 -6.36175,-7.55886 -13.32756,-13.7013 -6.96582,-6.14245 -14.7213,-13.62795 -17.23443,-16.63445 -5.75512,-6.88498 -36.94575,-35.90419 -46.6271,-43.38104 -9.17365,-7.08475 -20.41612,-20.33304 -27.67751,-32.61554 -5.79205,-9.79714 -14.23966,-17.38446 -19.35562,-17.38446 -1.40011,0 -3.62562,-0.57799 -4.94559,-1.28441 -1.31998,-0.70644 -4.79861,-1.79008 -7.73032,-2.40812 -5.85917,-1.23516 -23.38857,-8.04662 -35.72974,-13.88363 -15.16983,-7.17489 -24.94974,-19.50678 -28.34698,-35.7439 -1.45725,-6.96488 -2.45764,-8.94228 -5.8688,-11.6005 -34.64385,-26.99685 -50.71315,-49.17733 -58.53115,-80.79058 -1.95167,-7.89186 -4.99529,-16.93745 -6.7636,-20.1013 -1.7683,-3.16385 -3.2151,-6.69625 -3.2151,-7.8498 0,-1.15353 -1.95526,-3.99245 -4.34502,-6.3087 -6.68861,-6.48286 -9.22421,-15.89212 -10.1133,-37.52906 -0.82139,-19.98945 -1.53878,-22.94149 -7.63765,-31.4287 -5.299626,-7.37498 -7.338859,-13.2308 -8.426112,-24.1963 -0.814672,-8.21636 -3.958003,-21.875 -5.034205,-21.875 -0.267547,0 -3.204959,1.17552 -6.527582,2.61227 -7.218132,3.12124 -56.377495,16.30469 -63.650805,17.06973 -4.782115,0.50301 -5.439455,0.16283 -10.25403,-5.30682 C -2.6307671,308.47901 -2.9634986,300.0133 8.2800655,272.71655 10.638054,266.9919 13.67744,257.5471 15.034256,251.72809 c 3.499674,-15.00915 5.459778,-18.59698 21.657829,-39.64319 11.510176,-14.95524 12.753704,-17.34204 15.08811,-28.9599 4.569362,-22.74079 10.863781,-36.46291 22.140127,-48.26651 7.267739,-7.60755 13.870014,-10.80471 27.062938,-13.10525 5.99046,-1.0446 12.38478,-2.71016 14.2096,-3.70126 1.82483,-0.99109 4.46351,-1.80198 5.86373,-1.80198 1.40023,0 2.91165,-0.59185 3.35871,-1.31521 0.44707,-0.72337 3.99589,-1.22236 7.88627,-1.10888 7.4609,0.21765 25.90962,-1.62043 26.97694,-2.68776 0.34541,-0.3454 -1.31971,-6.22139 -3.70025,-13.057746 -3.04994,-8.758683 -4.33568,-14.648615 -4.3534,-19.942572 -0.0139,-4.132057 -0.54087,-11.079973 -1.17124,-15.439813 -1.42336,-9.844622 1.00573,-26.432713 5.11318,-34.917579 3.24726,-6.707963 11.49497,-15.201273 19.07599,-19.6440419 6.80757,-3.9895037 20.11793,-6.9995988 31.10512,-7.0343241 7.6179,-0.024077 10.04076,0.5776157 17.83254,4.4285196 15.58121,7.7006534 22.18515,18.3161764 23.85565,38.3468304 0.70677,8.474838 1.24519,10.310937 3.17127,10.81462 2.93862,0.768463 4.01004,5.003812 3.25462,12.865571 -0.51388,5.348026 -1.34576,6.88266 -6.23105,11.494714 L 241.59294,84.375 240.8476,95 c -0.40994,5.84375 -1.09813,13.15625 -1.5293,16.25 l -0.78396,5.625 7.92033,3.67957 c 4.35618,2.02376 8.66363,4.41438 9.57212,5.31249 0.90847,0.89812 2.3795,1.63294 3.26892,1.63294 0.88943,0 2.95863,1.04209 4.59821,2.31575 1.63959,1.27366 6.07483,3.31952 9.85608,4.54636 8.47834,2.75081 15.30321,6.11591 17.3114,8.53564 0.83554,1.00676 4.1729,2.21936 7.41637,2.69466 10.28215,1.50678 15.72888,4.76484 23.34667,13.96528 10.05425,12.14308 25.64505,40.26096 32.79623,59.14771 2.3618,6.23767 5.1111,10.22854 12.05572,17.5 4.9479,5.18077 12.57722,14.04102 16.95405,19.68944 l 7.95786,10.26983 5.48129,-4.82481 C 408.62727,251.16637 426.07556,245 443.3046,245 l 10.27935,0 0.39552,-3.4375 c 0.34994,-3.04134 0.97595,-3.48024 5.43184,-3.80837 5.64538,-0.41573 10.75913,2.63103 19.83201,11.81587 2.82243,2.85725 6.53793,5.60292 8.25668,6.1015 1.71875,0.49856 4.61809,1.95769 6.44296,3.2425 1.82488,1.2848 5.3405,2.336 7.8125,2.336 6.09523,0 9.94591,3.85789 9.16455,9.18169 -0.41342,2.81681 0.24138,5.00777 2.3054,7.71385 3.78906,4.96771 4.91326,11.06592 4.8354,26.22946 -0.0727,14.15427 -1.36326,22.85354 -3.80951,25.67849 -0.91849,1.06067 -2.45255,4.99817 -3.40904,8.75 -1.32535,5.19872 -2.34752,6.91282 -4.29677,7.20537 -1.40675,0.21113 -4.08389,2.74238 -5.9492,5.625 -1.86532,2.88263 -6.72563,8.46202 -10.80069,12.39865 -27.14908,26.2268 -74.05789,24.07334 -99.33031,-4.56 -5.3843,-6.10032 -14.21529,-22.18817 -14.21529,-25.89666 0,-0.98276 -1.58249,-2.72163 -3.51663,-3.86415 -1.93415,-1.14254 -6.82261,-7.02944 -10.86326,-13.08201 -4.04064,-6.05258 -11.88002,-17.16912 -17.42086,-24.70341 -12.8975,-17.53772 -17.18915,-24.59913 -28.89989,-47.55128 -5.26169,-10.3125 -10.40315,-19.69644 -11.42547,-20.8532 -2.45829,-2.78154 -4.46878,-1.83725 -8.51284,3.99832 -3.14614,4.53989 -3.26689,5.2192 -1.98775,11.18358 1.38952,6.47915 6.02301,16.69325 10.36509,22.84891 1.92147,2.72403 2.24555,4.576 1.5788,9.02221 -0.46144,3.07705 -1.62157,6.24413 -2.57808,7.03795 -0.95651,0.79384 -1.73911,2.16173 -1.73911,3.03977 0,0.87803 -2.23254,4.56767 -4.96121,8.19917 -6.07969,8.09133 -8.74095,17.96265 -6.50765,24.1387 1.97621,5.46513 1.84932,8.89801 -0.49658,13.43449 -2.36809,4.57935 -1.6567,6.96034 2.5584,8.56292 1.73638,0.66017 3.15704,1.80758 3.15704,2.54982 0,0.74223 1.13906,3.84991 2.53124,6.90593 1.94576,4.2712 3.20785,5.55643 5.45642,5.55643 4.58105,0 9.51234,4.58311 9.51234,8.84072 0,3.2616 0.42265,3.65928 3.88902,3.65928 5.3302,0 15.72695,8.81404 18.92519,16.04419 2.81196,6.35691 2.1929,14.93078 -1.30671,18.09761 -1.87868,1.70004 -2.11685,4.79461 -2.00103,25.99895 0.122,22.3393 -0.0734,24.5733 -2.71827,31.08252 -1.56738,3.85733 -3.81886,11.02843 -5.00333,15.9358 l -2.15356,8.9225 4.01908,6.26319 c 3.02727,4.7176 5.30915,6.73641 9.24683,8.18086 2.87528,1.05473 9.15937,3.36219 13.96465,5.1277 4.80528,1.7655 11.01213,4.54341 13.793,6.1731 12.16789,7.13087 23.98034,25.22562 26.96013,41.29858 1.56844,8.46013 0.649,23.41655 -2.08471,33.912 -0.97917,3.75924 -1.78029,7.81112 -1.78029,9.00419 0,1.19306 2.95312,5.03628 6.5625,8.5405 6.29302,6.10966 6.92054,6.40565 15.28181,7.20847 9.11465,0.87516 24.62693,5.50081 30.40573,9.06676 1.85622,1.14544 5.90621,4.48834 8.99996,7.42867 6.05967,5.75918 17.98037,11.71441 23.44899,11.71441 1.85774,0 6.31047,1.21557 9.89498,2.70126 l 6.51731,2.70128 4.61455,-3.51969 4.61455,-3.5197 5.23066,2.85737 c 6.06955,3.31563 8.20142,2.69743 15.8315,-4.59081 7.18829,-6.86622 19.66631,-7.27616 27.24964,-0.89521 7.02396,5.91027 14.73193,17.73784 19.3838,29.74361 5.74391,14.82423 12.07603,22.3005 24.35066,28.75065 17.89699,9.4046 31.53686,31.43019 33.37655,53.89624 0.62624,7.64757 0.34154,9.44631 -2.25963,14.27667 -4.17142,7.74632 -10.74201,12.73505 -17.82461,13.53335 -4.82261,0.54359 -7.10237,-0.0335 -14.03625,-3.55293 -10.68985,-5.42589 -31.81222,-25.38319 -38.47501,-36.35283 -2.64051,-4.34735 -5.6592,-8.90364 -6.7082,-10.12509 -1.79375,-2.08863 -2.00398,-1.99081 -3.53216,1.64367 -1.41007,3.35355 -2.16545,3.81242 -5.7136,3.47081 -5.46797,-0.52644 -6.28597,-5.35583 -1.64558,-9.71524 4.05414,-3.80866 4.18921,-8.48229 0.28801,-9.96552 -1.5916,-0.60513 -6.23222,-1.50749 -10.3125,-2.00524 -10.01351,-1.22156 -17.19337,-4.85409 -16.14197,-8.16674 0.9279,-2.92354 -3.29346,-5.02827 -14.82875,-7.3935 -4.01613,-0.82347 -9.64113,-2.55929 -12.5,-3.85736 -2.85886,-1.29807 -6.71161,-2.3725 -8.56166,-2.3876 -1.85005,-0.0151 -3.66049,-0.5076 -4.02318,-1.09445 -0.36269,-0.58685 -5.31776,-1.43554 -11.01127,-1.88599 -5.6935,-0.45043 -15.84219,-1.4643 -22.55263,-2.25303 -6.71044,-0.78873 -12.49195,-1.14289 -12.84781,-0.78703 -1.62959,1.62958 6.6946,14.42615 15.72462,24.17311 5.47194,5.90638 9.94899,11.70025 9.94899,12.87527 0,1.17501 3.64984,6.75211 8.11075,12.39357 l 8.11074,10.25719 5.3889,-0.73864 5.3889,-0.73863 8.78391,10.44809 c 4.83115,5.74645 10.80441,14.10434 13.27393,18.57309 2.46951,4.46875 6.26824,9.8125 8.44163,11.875 6.48387,6.15305 15.11667,19.11772 15.88577,23.85714 1.20095,7.4006 -5.84184,13.35731 -33.62878,28.44282 C 463.32304,837.06078 449.93681,842.5 442.73316,842.5 c -1.97762,0 -4.4743,-0.98438 -5.54815,-2.1875 z"
       id="path3430"
       inkscape:connector-curvature="0" />
    <path
       style="fill:#98ccf2"
       d="m 436.88234,839.56163 c -3.57149,-5.45078 -4.38811,-11.97905 -3.56303,-28.48355 l 0.78973,-15.79694 -5.7363,-13.57806 c -3.15497,-7.46794 -6.07099,-15.17289 -6.48008,-17.12212 -1.06592,-5.07906 -6.08422,-9.16176 -12.77293,-10.39157 C 403.68889,753.19086 399.97191,750 404.23959,750 c 1.4793,0 1.77483,-0.8654 1.22845,-3.59729 -0.3957,-1.97851 -0.0909,-4.77181 0.6774,-6.20733 1.64387,-3.0716 -0.0888,-4.47767 -11.14544,-9.04507 -7.84686,-3.24144 -8.14806,-3.41891 -7.27833,-4.28866 0.3511,-0.35109 3.04682,0.21141 5.9905,1.25 12.84235,4.53105 10.8297,-0.026 -7.01028,-15.8727 -7.82284,-6.94879 -13.99203,-12.86548 -13.70932,-13.1482 0.86615,-0.86614 -34.18936,-33.84749 -45.73877,-43.03251 -11.78825,-9.37495 -22.89935,-22.2706 -31.13941,-36.14068 -5.19717,-8.74811 -13.47903,-16.16756 -18.04684,-16.16756 -2.39525,0 -12.79615,-3.19214 -19.31755,-5.92874 -2.40625,-1.00975 -9.64509,-3.74506 -16.0863,-6.07847 -26.13269,-9.46689 -37.89548,-21.23019 -41.70316,-41.70497 -1.26228,-6.78753 -2.03457,-8.16846 -6.50888,-11.63836 -15.86564,-12.30409 -27.85885,-23.48879 -34.39831,-32.07937 -11.52715,-15.14269 -19.3278,-30.89819 -23.5542,-47.57397 -2.00434,-7.90838 -5.13035,-17.31156 -6.9467,-20.89595 -1.81635,-3.58438 -3.30245,-7.26917 -3.30245,-8.18841 0,-0.91924 -1.98514,-3.59541 -4.41141,-5.94705 -6.53055,-6.32966 -9.14588,-16.18181 -10.05142,-37.86446 -0.80053,-19.16805 -1.54698,-22.35135 -7.20654,-30.73266 -5.176981,-7.66665 -7.880296,-15.50901 -8.873633,-25.74259 -0.705358,-7.26675 -3.906933,-20.625 -4.943201,-20.625 -0.156909,0 -4.930389,1.69525 -10.607735,3.76722 -5.677346,2.07198 -16.331885,5.18099 -23.676754,6.90892 -7.344868,1.72791 -17.935652,4.53266 -23.535075,6.23276 -5.599422,1.70011 -11.822308,3.0911 -13.828636,3.0911 -4.405035,0 -8.425177,-3.92271 -14.6566771,-14.30146 -6.5979165,-10.98904 -6.1316995,-16.09124 3.7548711,-41.09273 2.483708,-6.28089 5.801565,-16.61036 7.373014,-22.95438 3.399706,-13.72482 5.749975,-17.94277 21.803497,-39.13004 12.068112,-15.92738 12.2773,-16.32149 14.41309,-27.15417 2.885878,-14.63712 8.313031,-30.25682 13.110611,-37.73321 4.963418,-7.73481 16.253049,-18.45464 21.936518,-20.82934 2.407337,-1.00585 9.585165,-2.88573 15.95073,-4.17752 6.36556,-1.29178 14.62723,-3.52453 18.35926,-4.96166 3.73816,-1.4395 9.35185,-2.54636 12.5,-2.46464 7.87005,0.20427 25.0448,-1.61727 25.73195,-2.72911 0.30981,-0.50129 -1.34462,-6.46562 -3.67652,-13.254085 -3.8136,-11.101875 -4.3218,-14.22755 -5.05535,-31.092655 -0.50874,-11.696456 -0.31255,-21.301895 0.5215,-25.533546 4.522,-22.94262 20.26092,-36.4579766 46.31791,-39.7741678 9.78509,-1.2453184 16.69156,-0.1929367 25.65025,3.9084878 14.69657,6.728313 22.15771,19.103156 23.88261,39.611078 0.67445,8.01868 1.19974,9.639263 3.44399,10.625 5.68586,2.497402 3.5792,19.02288 -2.84878,22.346919 -4.36777,2.258661 -5.96786,6.33104 -6.90201,17.566229 -0.40014,4.8125 -1.06254,11.5625 -1.47201,15 l -0.7445,6.25 6.05772,2.997 c 3.33175,1.64835 6.90148,3.48778 7.93273,4.08763 1.03125,0.59985 3.84375,1.97908 6.25,3.06498 2.40625,1.08589 5.21875,2.66868 6.25,3.51728 1.03125,0.84861 6.28812,3.11927 11.68194,5.0459 5.39382,1.92664 11.21307,4.80612 12.93167,6.39887 1.86936,1.73247 5.46224,3.2193 8.94305,3.70089 15.85299,2.19335 25.42303,12.32181 43.05043,45.56245 3.82809,7.21875 9.03786,18.1875 11.57728,24.375 3.75703,9.15428 6.16084,12.8817 12.90388,20.00913 4.55771,4.81751 12.14582,13.6408 16.86247,19.60731 l 8.57573,10.84817 6.35939,-5.0268 c 13.81957,-10.92375 30.44267,-16.56149 46.70399,-15.8397 l 9.05438,0.40189 0.36539,-3.75 c 0.32906,-3.37712 0.8469,-3.7895 5.20784,-4.14719 3.88295,-0.3185 5.78792,0.36261 9.6142,3.4375 2.62447,2.10908 5.30048,3.83469 5.9467,3.83469 0.64621,0 2.59947,1.86767 4.34058,4.15037 3.72127,4.87884 17.57963,12.09963 23.22197,12.09963 5.47876,0 9.32408,4.10593 8.5818,9.16341 -0.40884,2.7856 0.33516,5.29094 2.57748,8.67931 2.61638,3.95362 3.35508,7.12199 4.34552,18.63847 0.84308,9.80325 0.78403,15.24102 -0.2012,18.5295 -0.76698,2.5599 -1.39449,5.82496 -1.39449,7.25569 0,1.43073 -1.40625,5.24613 -3.125,8.47864 -1.71875,3.23253 -3.125,6.87254 -3.125,8.08892 0,4.00886 -1.47794,6.16606 -4.22448,6.16606 -1.83117,0 -3.49937,1.47131 -5.15598,4.54746 -1.34694,2.5011 -5.82532,7.89254 -9.95197,11.98095 -19.61986,19.43813 -51.01726,25.0228 -76.28027,13.568 -16.97943,-7.69883 -27.41191,-18.32757 -34.90294,-35.55954 -2.4771,-5.69817 -5.64465,-10.67459 -8.12061,-12.75798 -2.23266,-1.87865 -7.48375,-8.53183 -11.66908,-14.78482 -4.18533,-6.25298 -11.49386,-16.62771 -16.24116,-23.05492 -11.326,-15.3339 -15.90054,-22.96129 -28.50001,-47.51969 -5.77199,-11.25055 -11.31084,-20.76879 -12.30854,-21.15164 -1.11007,-0.42597 -3.45222,1.20602 -6.03557,4.20554 -3.86529,4.48798 -4.1605,5.40233 -3.49804,10.83451 0.8646,7.08967 4.30799,15.48289 9.52071,23.2067 3.08235,4.56718 3.66625,6.46095 3.03294,9.83683 -0.94573,5.04114 -5.47945,13.91031 -11.20448,21.91897 -5.03076,7.03745 -6.65182,15.67278 -4.37117,23.28494 1.3033,4.35 1.2107,5.95298 -0.62089,10.74894 -2.37019,6.20624 -1.94839,7.79001 2.52796,9.49191 1.65197,0.62808 3.00358,2.02204 3.00358,3.0977 0,1.07565 1.13644,4.18333 2.5254,6.90594 1.93519,3.79327 3.2631,4.9502 5.68182,4.9502 4.0738,0 9.29278,5.23325 9.29278,9.31819 0,2.6802 0.5735,3.18181 3.63775,3.18181 4.51807,0 15.43897,8.33872 18.38695,14.03949 2.96571,5.73506 2.76492,16.52425 -0.3734,20.06486 -2.2722,2.56345 -2.43878,4.50004 -2.22744,25.89565 0.22153,22.42707 0.12621,23.38907 -3.15806,31.875 -1.86258,4.8125 -4.09304,12.18005 -4.95659,16.37232 -1.35114,6.5593 -1.2996,8.12824 0.36953,11.25 3.90765,7.30849 7.57462,10.21795 16.44626,13.04887 23.30464,7.43645 34.7945,16.10977 42.96415,32.43224 6.52429,13.03512 8.3115,23.68875 6.48879,38.67968 -0.75569,6.21514 -1.92613,12.75248 -2.60096,14.52744 -2.53168,6.65883 -1.53638,9.72304 5.33552,16.4264 6.14587,5.99514 7.07832,6.45816 14.6875,7.29333 16.56502,1.81811 30.58464,7.53371 39.93702,16.28177 6.77109,6.33356 17.64673,11.78321 23.55028,11.80074 2.26176,0.006 6.31747,1.13721 9.0127,2.51221 6.32351,3.22601 7.78375,3.15165 12.27204,-0.625 4.51117,-3.7959 5.23905,-3.83433 9.47755,-0.50032 4.24038,3.33548 7.98091,2.4916 14.31307,-3.22913 11.60685,-10.4861 23.42911,-9.26811 34.31481,3.5353 6.43994,7.57446 9.4109,12.86347 14.85432,26.44415 4.82643,12.04138 12.26015,20.57295 22.37412,25.67846 9.3713,4.73063 13.87363,8.6935 20.62333,18.15236 6.74445,9.45149 12.42862,24.31253 13.64028,35.66192 0.7387,6.91922 0.47919,9.02667 -1.61622,13.125 -5.43858,10.63709 -14.25869,16.43255 -22.64288,14.87802 -15.6446,-2.90069 -42.16323,-27.11933 -53.7172,-49.05826 -1.9404,-3.68448 -3.65681,-3.56466 -4.63265,0.32339 -0.81762,3.25767 -5.1836,5.23672 -8.63277,3.91315 -2.96565,-1.13803 -2.23719,-6.58489 1.2472,-9.32571 3.66846,-2.88562 4.17569,-8.3246 0.9375,-10.05288 -1.20313,-0.64214 -5.5625,-1.56671 -9.6875,-2.0546 -4.125,-0.48789 -9.9602,-1.9502 -12.96713,-3.24957 -4.55696,-1.96919 -5.21466,-2.66669 -3.95065,-4.18974 2.1872,-2.63542 -4.44603,-6.3632 -14.41031,-8.0984 -4.32719,-0.75355 -10.29857,-2.4733 -13.26976,-3.82166 -2.97119,-1.34837 -6.83653,-2.46393 -8.58965,-2.47903 -1.75313,-0.0151 -3.72188,-0.5428 -4.375,-1.17267 -0.65313,-0.62988 -8.78125,-1.8113 -18.0625,-2.62542 -9.28125,-0.8141 -19.54688,-1.90223 -22.8125,-2.41808 -3.26563,-0.51585 -5.9375,-0.50564 -5.9375,0.0227 0,3.49686 7.8573,15.232 16.30101,24.34608 5.47194,5.90638 9.94899,11.63413 9.94899,12.72833 0,2.0304 7.78395,13.17747 13.57515,19.44041 2.82555,3.05573 3.8295,3.38124 8.34164,2.7046 l 5.1295,-0.76922 8.82037,10.42041 c 4.8512,5.73122 10.52191,13.79541 12.60157,17.92041 2.07965,4.125 5.30143,8.90625 7.15951,10.625 4.25842,3.93911 13.59713,16.12524 16.16951,21.09965 1.07401,2.07691 1.95275,4.96188 1.95275,6.41104 0,5.02916 -10.04854,13.21584 -29.20539,23.79404 -22.85088,12.61799 -36.43653,18.593 -44.42777,19.53945 -5.57761,0.66057 -6.28479,0.44308 -8.2345,-2.53255 z"
       id="path3428"
       inkscape:connector-curvature="0" />
    <path
       style="fill:#76c3fa"
       d="m 436.77854,839.40321 c -3.46385,-5.28651 -4.27779,-11.95123 -3.45923,-28.32514 l 0.78973,-15.79693 -5.7363,-13.57807 c -3.15497,-7.46793 -6.07099,-15.17288 -6.48008,-17.12211 -1.00637,-4.79531 -6.22236,-9.3635 -11.73239,-10.27527 -2.4944,-0.41277 -5.2384,-0.97024 -6.09777,-1.23885 C 401.44802,752.24965 402.31911,750 405.25,750 c 2.13889,0 2.41666,-0.33334 1.25,-1.5 -2.07519,-2.07519 -1.87768,-6.69376 0.38295,-8.95438 1.67726,-1.67727 0.88441,-2.36973 -7.25819,-6.33928 -5.02764,-2.45099 -9.81246,-4.45634 -10.63295,-4.45634 -0.8205,0 -1.49181,-0.5625 -1.49181,-1.25 0,-1.53608 -0.38563,-1.57645 5.625,0.58895 13.4258,4.83683 11.55646,0.16993 -6.34174,-15.8324 -7.78322,-6.95879 -14.04371,-12.98516 -13.91219,-13.39195 0.40277,-1.24559 -34.0818,-33.69957 -45.37107,-42.69945 -11.76544,-9.37949 -21.43435,-20.54564 -30.54796,-35.27836 -6.2972,-10.17984 -14.22017,-17.09773 -19.67726,-17.18109 -1.59488,-0.0244 -4.30603,-0.84818 -6.02478,-1.8307 -1.71875,-0.98253 -4.41304,-1.80635 -5.9873,-1.8307 -1.57426,-0.0244 -5.0178,-1.14396 -7.65231,-2.48799 -2.6345,-1.34402 -9.67988,-4.13799 -15.65639,-6.20881 -24.99748,-8.66146 -37.213,-20.98131 -41.00121,-41.35135 l -1.43996,-7.743 -15.00563,-12.06408 c -25.28627,-20.32939 -41.11783,-43.78923 -47.72826,-70.72569 -1.86784,-7.6111 -5.00097,-17.05672 -6.9625,-20.99023 -1.96154,-3.93353 -3.56644,-7.9013 -3.56644,-8.8173 0,-0.91599 -1.90608,-3.51289 -4.23574,-5.77088 -6.47976,-6.28042 -9.21119,-16.79827 -10.45949,-40.27598 l -1.03766,-19.516 -5.35987,-8.22664 C 99.087615,346.55032 96.951105,340.4385 95.678192,328.75 c -0.89898,-8.25486 -2.98827,-17.39278 -4.349417,-19.023 -0.412379,-0.4939 -5.801929,0.81163 -11.976778,2.90117 -6.174848,2.08955 -18.820747,5.69427 -28.101997,8.01048 -9.28125,2.3162 -19.336346,5.0888 -22.344659,6.16133 -11.803439,4.20812 -15.602446,2.28532 -24.5487479,-12.42498 -4.12876453,-6.78887 -4.50617083,-8.15227 -3.98039778,-14.37933 0.32516579,-3.85113 2.91984058,-12.92998 5.89448788,-20.625 2.9225028,-7.56012 6.9160948,-19.84342 8.8746478,-27.29622 4.079196,-15.52239 7.214874,-21.20649 23.324218,-42.28025 10.785235,-14.10892 11.214229,-14.92459 13.255566,-25.20335 2.871994,-14.46136 8.675242,-31.17292 13.360616,-38.47445 2.134339,-3.32607 7.096054,-9.01606 11.026035,-12.64441 7.520519,-6.9433 12.30488,-8.98998 29.513234,-12.62535 4.8125,-1.01667 11.28125,-2.83309 14.375,-4.03649 3.09375,-1.2034 9,-2.33682 13.125,-2.51872 4.125,-0.1819 11.91019,-0.73662 17.30041,-1.23271 11.3321,-1.04295 10.92304,0.37538 4.8478,-16.80872 -3.28097,-9.280375 -3.86214,-12.997867 -4.59225,-29.375 -0.94032,-21.09204 0.0864,-28.875001 5.19005,-39.341697 3.48084,-7.138614 7.58074,-11.608949 16.00399,-17.449967 8.33977,-5.7831314 17.25586,-8.1121442 31.25,-8.1629525 10.98994,-0.039901 13.36021,0.357831 19.62063,3.2923444 15.24318,7.1451091 22.54792,19.1962311 24.30631,40.0997721 0.5696,6.771364 1.31086,9.6875 2.4625,9.6875 3.93448,0 5.52442,9.679722 2.85003,17.351451 -0.76203,2.185981 -2.93279,4.774643 -4.82392,5.752582 -1.89113,0.97794 -4.02934,3.351473 -4.75158,5.27452 -1.28121,3.411349 -4.64927,32.789157 -3.82765,33.386537 3.29485,2.39559 9.8775,5.73491 11.30499,5.73491 1.01542,0 2.86433,1.125 4.10869,2.5 1.24436,1.375 3.22442,2.5 4.40016,2.5 1.17573,0 3.47918,1.04762 5.11876,2.32805 1.63959,1.28042 4.38733,2.74925 6.10608,3.26404 2.95345,0.88461 6.53216,2.31428 15.9375,6.36697 2.23437,0.96276 4.0625,2.27847 4.0625,2.92378 0,1.30647 5.57831,3.227 13.01925,4.48232 11.04946,1.86412 20.83084,12.49044 34.97654,37.99798 5.18885,9.35652 11.70181,22.5937 14.47325,29.41593 4.21361,10.37234 6.32832,13.75064 12.91062,20.625 4.32942,4.52152 11.98042,13.39045 17.00223,19.70875 l 9.13059,11.48784 6.25367,-4.94325 c 13.45445,-10.63512 32.83554,-16.9907 48.74236,-15.98391 7.12643,0.45105 7.13388,0.44777 7.5,-3.2985 0.32298,-3.3048 0.88589,-3.79044 4.74149,-4.09061 2.9055,-0.22622 5.81074,0.61351 8.64946,2.5 2.35095,1.56233 5.23798,3.42203 6.41563,4.13265 1.17764,0.71062 3.63604,3.06861 5.46312,5.23997 4.07404,4.84173 17.21059,11.59299 22.55753,11.59299 5.88157,0 8.61686,2.59987 8.70987,8.27869 0.0464,2.83506 1.33455,6.86551 3.10384,9.71178 3.78878,6.09508 6.29694,29.33714 3.99504,37.02022 -0.76698,2.5599 -1.39449,5.82496 -1.39449,7.25569 0,1.43073 -1.40625,5.24613 -3.125,8.47864 -1.71875,3.23253 -3.125,6.87254 -3.125,8.08892 0,4.03972 -1.48562,6.16606 -4.30809,6.16606 -1.67853,0 -3.30456,1.12081 -4.08026,2.8125 -2.42205,5.28214 -17.58006,20.38692 -23.92344,23.83941 -22.18403,12.07408 -44.71573,12.45881 -67.6164,1.1546 -14.6235,-7.21845 -26.32966,-20.6358 -31.98248,-36.65764 -1.0739,-3.04375 -3.76375,-6.95466 -6.11792,-8.89517 -2.31076,-1.90471 -8.30332,-9.51913 -13.31682,-16.92091 -5.0135,-7.40179 -12.27451,-17.67654 -16.13559,-22.83279 -9.98068,-13.32864 -15.64464,-22.79264 -27.57803,-46.08054 -5.76509,-11.25055 -11.29831,-20.76879 -12.29601,-21.15164 -1.11007,-0.42597 -3.45222,1.20602 -6.03557,4.20554 -3.92273,4.55467 -4.16752,5.34406 -3.45815,11.15164 0.889,7.27835 3.95566,14.70282 9.41288,22.7889 3.14664,4.66244 3.7361,6.55149 3.10088,9.9375 -0.94741,5.05016 -5.4805,13.91116 -11.23854,21.96839 -5.06889,7.09291 -6.85261,16.87515 -4.34271,23.81615 1.35978,3.76037 1.27465,5.21958 -0.58925,10.10011 -2.39611,6.27412 -1.98232,7.8552 2.50193,9.56011 1.65196,0.62808 3.00357,2.02204 3.00357,3.0977 0,1.07565 1.13644,4.18333 2.5254,6.90594 1.93519,3.79328 3.2631,4.9502 5.68182,4.9502 4.0738,0 9.29278,5.23325 9.29278,9.31819 0,2.63621 0.58945,3.18289 3.4375,3.18811 4.31463,0.007 14.93821,7.89673 18.23373,13.53994 3.35072,5.73774 3.34325,16.76133 -0.0139,20.55811 -2.26209,2.55829 -2.43451,4.54314 -2.2495,25.89565 0.19496,22.50117 0.1075,23.36275 -3.24176,31.93824 -1.89318,4.84728 -4.11201,12.21812 -4.93074,16.37965 -1.26452,6.42742 -1.1972,8.11138 0.44724,11.18676 4.2071,7.86804 7.46499,10.25564 19.56747,14.34044 15.80623,5.33487 19.66888,7.39397 27.78499,14.81165 8.77407,8.01901 16.60914,23.10115 18.5192,35.64862 1.36568,8.97134 -0.0169,27.14588 -2.57721,33.88019 -2.53267,6.66142 -1.5373,9.72289 5.33552,16.41056 5.92028,5.76079 7.27253,6.46963 13.81775,7.24321 9.35328,1.10547 23.49293,5.035 29.92513,8.31647 2.77733,1.4169 7.67408,5.03096 10.88165,8.03126 6.77108,6.33356 17.64672,11.78321 23.55027,11.80074 2.26176,0.006 6.46594,1.21295 9.34263,2.68052 4.21432,2.14999 5.89261,2.41833 8.63982,1.38138 2.45648,-0.92723 3.5909,-0.88693 4.0585,0.14418 0.35696,0.78712 0.52475,0.38074 0.37288,-0.90307 -0.15187,-1.28381 0.68492,-2.95371 1.85952,-3.7109 1.6784,-1.08195 2.93881,-0.78291 5.88689,1.3967 5.24524,3.87796 7.6748,3.5002 14.1509,-2.20029 12.6582,-11.1422 23.92974,-10.20892 35.07904,2.90454 6.43993,7.57446 9.4109,12.86347 14.85431,26.44415 4.86656,12.1415 12.27049,20.57816 22.66316,25.82437 17.52714,8.84767 31.55181,31.07029 33.99266,53.86268 0.99179,9.26112 -1.16368,14.98932 -8.24587,21.91347 -11.2288,10.97823 -25.488,6.66877 -47.50449,-14.35698 -8.8824,-8.48269 -17.2425,-19.30903 -22.24402,-28.80604 -1.9404,-3.68448 -3.65681,-3.56466 -4.63265,0.32339 -0.81763,3.25767 -5.1836,5.23672 -8.63278,3.91315 -2.96565,-1.13803 -2.23719,-6.58489 1.2472,-9.32572 2.10703,-1.65738 3.125,-3.69402 3.125,-6.2521 0,-4.0654 -0.30538,-4.18612 -17.92383,-7.08633 -7.52645,-1.23894 -11.08402,-3.26388 -10.39089,-5.91439 0.86731,-3.31661 -3.78774,-5.90514 -15.54109,-8.6419 -5.51816,-1.28491 -11.66135,-3.17824 -13.65152,-4.2074 -1.99026,-1.02916 -5.33402,-1.8712 -7.43065,-1.8712 -2.09664,0 -3.81208,-0.50395 -3.81208,-1.1199 0,-0.61594 -4.64063,-1.49615 -10.3125,-1.95601 -13.05258,-1.05827 -30.55462,-3.01373 -34.9034,-3.89968 -2.88155,-0.58704 -3.24968,-0.33177 -2.67743,1.85654 0.36493,1.39544 1.44645,3.18695 2.40341,3.98116 0.95696,0.7942 1.73992,2.43098 1.73992,3.63726 0,1.20631 5.0625,7.64459 11.25,14.30732 6.1875,6.66271 11.25,12.95865 11.25,13.99095 0,2.25471 6.33049,11.65065 12.30549,18.26426 4.04091,4.4728 4.66211,4.73367 9.53292,4.00325 l 5.21034,-0.78134 9.05437,10.75223 c 4.97992,5.91372 10.22138,13.39041 11.6477,16.61486 1.42633,3.22445 5.19364,8.70021 8.37182,12.16836 11.53153,12.58371 17.62736,21.87408 17.62736,26.86506 0,4.41183 -8.39456,12.1009 -20.99137,19.22725 C 468.91277,834.23041 450.08339,842.5 441.77215,842.5 c -1.7756,0 -3.77829,-1.24197 -4.99361,-3.09679 z"
       id="path3426"
       inkscape:connector-curvature="0" />
    <path
       style="fill:#6db8ed"
       d="m 436.82642,839.4763 c -3.36808,-5.14035 -4.24015,-12.50541 -3.43888,-29.04324 l 0.73605,-15.19195 -5.8118,-13.27057 C 425.11531,774.67171 422.5,767.89393 422.5,766.90879 c 0,-6.26205 -6.22965,-11.98012 -14.27325,-13.10113 C 403.02946,753.08333 400.3678,750 404.93981,750 c 2.2308,0 2.44421,-0.38105 1.35416,-2.41783 -1.79673,-3.35725 -1.61723,-5.83034 0.5829,-8.03048 1.66918,-1.66917 0.88977,-2.37072 -7.04293,-6.33928 -4.90591,-2.45432 -9.7212,-4.46241 -10.70065,-4.46241 -0.97947,0 -1.48312,-0.48173 -1.11923,-1.0705 0.36389,-0.58877 3.63145,-0.0612 7.26128,1.17236 12.06846,4.1014 9.31453,-0.99626 -9.50192,-17.5886 -7.23787,-6.38233 -13.05447,-11.94941 -12.9258,-12.37126 0.40173,-1.31699 -34.18332,-33.94866 -45.34762,-42.78637 -11.70485,-9.26562 -21.4003,-20.43051 -30.45733,-35.07343 -8.48827,-13.7234 -11.65455,-15.78266 -32.46622,-21.11518 -2.6392,-0.67623 -6.85795,-2.26334 -9.375,-3.52691 -2.51705,-1.26356 -7.6702,-3.28815 -11.45145,-4.49906 -25.35296,-8.11911 -38.99993,-21.47604 -42.79556,-41.88604 -1.29635,-6.97079 -2.00045,-8.18471 -7.13388,-12.2993 -19.60627,-15.71502 -26.98095,-22.68145 -34.35877,-32.45668 -11.17167,-14.80189 -18.82588,-30.43752 -22.72503,-46.42154 -1.75056,-7.17614 -4.47211,-15.61364 -6.04791,-18.75 -1.57579,-3.13638 -3.28031,-7.10874 -3.78783,-8.82749 -0.50751,-1.71875 -2.78427,-5.09375 -5.05947,-7.5 -6.21516,-6.57315 -9.10598,-17.99105 -10.32277,-40.7719 l -1.00934,-18.89689 -5.35603,-8.22075 C 99.087539,346.5502 96.95094,340.43698 95.678192,328.75 c -0.89898,-8.25486 -2.98827,-17.39278 -4.349417,-19.023 -0.412379,-0.4939 -5.801929,0.79442 -11.976778,2.86294 -6.174848,2.06852 -19.101997,5.72693 -28.726997,8.12981 -9.625,2.40288 -19.620758,5.19267 -22.212795,6.19955 -7.992313,3.10464 -11.990534,2.42078 -17.04325,-2.9151 -2.4716754,-2.61019 -6.1125773,-7.74 -8.0908934,-11.3996 -4.6798347,-8.657 -4.11784859,-14.84537 3.0261654,-33.32294 2.9040536,-7.51116 6.870403,-19.7065 8.814109,-27.10076 4.14,-15.7494 6.121402,-19.38014 22.342858,-40.94126 11.84392,-15.74263 12.24835,-16.49978 14.281316,-26.73638 2.856037,-14.38102 8.667861,-31.10095 13.343221,-38.38686 5.670414,-8.83658 17.198783,-19.02914 23.766148,-21.01234 3.037716,-0.91731 10.023121,-2.65927 15.523121,-3.871 5.5,-1.21174 12.53125,-3.1949 15.625,-4.40703 3.09375,-1.21213 9,-2.31258 13.125,-2.44543 4.125,-0.13286 11.90837,-0.69703 17.2964,-1.25371 11.31942,-1.1695 10.90932,0.25705 4.85181,-16.87689 -3.28097,-9.280375 -3.86214,-12.997867 -4.59225,-29.375 -0.52662,-11.812584 -0.33827,-21.293719 0.50905,-25.625 1.74133,-8.901164 7.00299,-19.613997 11.85103,-24.12893 12.03642,-11.209402 22.1907,-15.0513269 40.08396,-15.165977 11.03166,-0.070685 13.33644,0.3119805 19.62062,3.2576349 15.24319,7.1451091 22.54793,19.1962311 24.30632,40.0997721 0.5696,6.771364 1.31086,9.6875 2.4625,9.6875 3.93448,0 5.52442,9.679722 2.85003,17.351451 -0.76203,2.185981 -2.8913,4.75318 -4.7317,5.704888 -1.84039,0.951707 -3.97341,3.043991 -4.74003,4.649519 -1.28387,2.688807 -4.81535,33.431742 -3.91439,34.076252 3.45591,2.47221 9.86336,5.71789 11.28796,5.71789 1.01542,0 2.86433,1.125 4.10869,2.5 1.24436,1.375 3.191,2.5 4.32589,2.5 1.13487,0 3.92955,1.37679 6.21037,3.05952 2.28083,1.68275 5.88727,3.44178 8.01431,3.90895 2.12706,0.46718 4.72958,1.27172 5.7834,1.78787 1.05382,0.51615 4.07923,1.86743 6.72314,3.00287 2.83795,1.21876 4.56027,2.70768 4.20452,3.63475 -0.33143,0.86368 0.31787,1.62619 1.44288,1.69446 6.57799,0.39923 17.47299,3.53399 21.32717,6.13637 2.45757,1.65937 7.0978,6.19167 10.31158,10.07176 7.39723,8.93086 23.17333,37.29132 29.75078,53.48252 4.19914,10.33671 6.34592,13.77425 12.88055,20.625 4.31286,4.52152 11.96762,13.44034 17.01057,19.81963 l 9.169,11.5987 5.51538,-4.51943 c 13.13857,-10.76608 32.57331,-17.42401 48.45677,-16.60026 l 8.1424,0.42229 0.36564,-3.75 c 0.31789,-3.26021 0.91825,-3.8028 4.59659,-4.15426 3.253,-0.31081 5.85146,0.70043 11.24181,4.375 3.85598,2.6286 8.30271,6.2935 9.88164,8.14422 3.72671,4.36825 17.06233,11.01004 22.10635,11.01004 5.88157,0 8.61686,2.59987 8.70987,8.27869 0.0464,2.83506 1.33455,6.86551 3.10384,9.71178 3.78877,6.09508 6.29694,29.33714 3.99504,37.02022 -0.76698,2.5599 -1.39449,5.82496 -1.39449,7.25569 0,1.43073 -1.40625,5.24613 -3.125,8.47864 -1.71875,3.23253 -3.125,6.87254 -3.125,8.08892 0,4.08094 -1.4962,6.16606 -4.4245,6.16606 -1.82456,0 -3.20725,0.9459 -3.71328,2.54025 -1.40306,4.42066 -19.6498,21.98749 -26.23722,25.25957 -12.00758,5.96437 -19.29264,7.70537 -32.5,7.76692 -15.59466,0.0728 -27.14964,-3.38237 -39.95445,-11.94674 -11.86313,-7.93454 -20.24693,-18.76924 -25.0438,-32.36504 -1.10964,-3.14506 -3.76941,-7.03457 -6.15534,-9.00126 -2.31076,-1.90471 -8.29361,-9.51913 -13.29524,-16.92091 -5.00161,-7.40179 -12.2719,-17.67654 -16.15618,-22.83279 -9.24136,-12.2676 -16.17194,-23.89425 -28.21643,-47.33554 -5.42886,-10.5658 -10.68734,-19.52392 -11.68549,-19.90696 -1.10952,-0.42575 -3.47057,1.21063 -6.07518,4.21055 -3.98814,4.59343 -4.20822,5.30629 -3.4443,11.15695 0.952,7.29121 4.04469,14.75673 9.401,22.69327 3.20929,4.75526 3.6837,6.3912 2.96475,10.2235 -1.03662,5.52564 -5.17978,13.53593 -10.42964,20.16442 -5.13691,6.48587 -7.37057,16.67252 -5.32933,24.30448 1.21598,4.54642 1.12987,6.51125 -0.49427,11.27784 -2.07324,6.08461 -1.05385,9.46149 2.85619,9.46149 0.96865,0 2.08364,0.98437 2.47776,2.1875 3.59893,10.9863 4.72203,12.57566 9.41694,13.32641 5.08545,0.81319 8.53801,4.50888 8.53801,9.13923 0,2.23698 0.70053,2.84686 3.27003,2.84686 4.18085,0 14.55665,7.58594 18.00308,13.16239 3.48728,5.64253 3.70523,17.15846 0.394,20.81732 -2.00995,2.22096 -2.27016,5.16234 -2.33971,26.44709 -0.0746,22.82677 -0.2313,24.32867 -3.3469,32.0732 -1.79778,4.46875 -3.94705,11.61541 -4.77619,15.88147 -1.4437,7.42804 -1.37183,7.98803 1.69704,13.22466 4.3289,7.38672 4.76641,7.67171 19.6809,12.81993 13.78126,4.75707 19.41195,7.86488 27.51844,15.1886 5.61551,5.07329 12.25467,16.38605 15.63158,26.63534 3.01684,9.15644 2.84,26.01019 -0.42178,40.19857 l -2.48824,10.82358 7.02637,6.85576 c 6.42303,6.26708 7.64938,6.92934 14.28163,7.71235 18.09382,2.13618 32.05481,7.97329 42.11975,17.61033 5.72671,5.48325 16.2928,10.54941 22.00205,10.54941 1.73772,0 5.95937,1.20447 9.38146,2.67661 4.98366,2.14393 6.81694,2.40553 9.21155,1.31448 2.23215,-1.01704 3.15966,-0.98262 3.66089,0.13587 0.36923,0.82393 0.54705,0.44765 0.39518,-0.83616 -0.15187,-1.28381 0.68492,-2.95371 1.85952,-3.7109 1.6784,-1.08195 2.93881,-0.78291 5.88689,1.3967 5.30796,3.92434 7.51004,3.51332 14.87964,-2.77725 11.84393,-10.1098 23.81157,-8.91309 34.30675,3.43052 6.48339,7.62529 9.44707,12.89605 14.89786,26.49513 4.86656,12.1415 12.27049,20.57816 22.66316,25.82437 17.52714,8.84767 31.55181,31.07029 33.99266,53.86268 0.99179,9.26112 -1.16368,14.98932 -8.24587,21.91348 -5.60914,5.48397 -10.83356,7.03517 -17.62288,5.23246 -16.55282,-4.39513 -40.81755,-26.92344 -52.12563,-48.39549 -1.9404,-3.68448 -3.65682,-3.56466 -4.63265,0.32339 -0.81763,3.25767 -5.1836,5.23672 -8.63278,3.91315 -2.87204,-1.1021 -2.23777,-5.5848 1.2472,-8.81457 2.0183,-1.8705 3.125,-4.24742 3.125,-6.71173 0,-3.5716 -0.40357,-3.90213 -6.31152,-5.16916 -3.47134,-0.74447 -7.30864,-1.35358 -8.52733,-1.35358 -1.21869,0 -4.8948,-0.91283 -8.16913,-2.0285 -4.85291,-1.65355 -5.83616,-2.4765 -5.3195,-4.45225 0.85653,-3.27533 -4.71597,-6.55906 -14.34576,-8.4536 -4.11737,-0.81005 -10.02817,-2.56245 -13.13508,-3.89424 C 476.08476,681.08964 471.90188,680 469.89636,680 c -2.0055,0 -3.64636,-0.50395 -3.64636,-1.1199 0,-0.61594 -4.64063,-1.49615 -10.3125,-1.95601 -13.05258,-1.05827 -30.55462,-3.01373 -34.9034,-3.89968 -2.88155,-0.58704 -3.24968,-0.33177 -2.67743,1.85654 0.36493,1.39544 1.44645,3.18695 2.40341,3.98116 0.95696,0.7942 1.73992,2.43373 1.73992,3.64339 0,1.20966 4.55041,7.09901 10.11204,13.08744 5.56162,5.98842 10.97076,12.94545 12.0203,15.46005 2.02342,4.84793 7.08269,11.91534 13.36457,18.66927 3.45245,3.71189 4.29253,4.02505 8.93138,3.32942 l 5.12046,-0.76787 9.05437,10.75223 c 4.97992,5.91372 10.19025,13.32005 11.57853,16.45849 1.38829,3.13845 5.14972,8.69355 8.35875,12.34467 13.27334,15.10196 17.7096,21.88515 17.7096,27.07853 0,5.05988 -10.95451,13.62997 -31.948,24.99402 -21.96933,11.89229 -33.81331,16.97643 -42.23828,18.1312 -5.04141,0.691 -5.75871,0.45305 -7.7373,-2.56665 z"
       id="path3424"
       inkscape:connector-curvature="0" />
    <path
       style="fill:#50aff3"
       d="m 436.97307,839.6875 c -3.11581,-4.77674 -4.72393,-14.73012 -3.7867,-23.4375 1.88471,-17.50985 0.53543,-24.52032 -8.10802,-42.12711 -1.41809,-2.88868 -2.59829,-6.26368 -2.62265,-7.5 -0.10962,-5.56581 -7.63261,-12.84745 -13.29096,-12.86465 -3.55392,-0.0108 -6.66474,-1.24397 -6.66474,-2.64198 0,-0.61393 1.14479,-1.11626 2.54398,-1.11626 2.12781,0 2.3323,-0.39553 1.25,-2.41783 -1.81579,-3.39282 -1.61305,-5.83453 0.67438,-8.12196 1.79114,-1.79115 1.14722,-2.36187 -7.15223,-6.33928 -5.01633,-2.40402 -9.87279,-4.37093 -10.79214,-4.37093 -0.91934,0 -1.37381,-0.48173 -1.00993,-1.0705 0.36389,-0.58877 3.63145,-0.0612 7.26128,1.17236 12.07174,4.10252 9.31491,-0.99593 -9.51825,-17.603 -7.24685,-6.39026 -12.90365,-12.05946 -12.57068,-12.59823 0.33298,-0.53877 -0.52822,-1.7736 -1.91378,-2.74409 -1.38557,-0.97049 -9.4106,-8.47321 -17.83342,-16.67273 C 345.0164,671.03429 333.34375,660.59872 327.5,656.04366 315.94754,647.0388 307.83897,637.72994 297.19267,621.25 c -9.34764,-14.46968 -11.61998,-15.95533 -32.63647,-21.33753 -2.65034,-0.67873 -6.43217,-2.06837 -8.40408,-3.08808 -1.9719,-1.01971 -7.67843,-3.31469 -12.6812,-5.09995 -13.93842,-4.974 -25.63266,-11.56585 -30.5585,-17.22533 -5.79261,-6.65532 -11.2341,-18.09053 -12.30148,-25.85136 -0.80183,-5.82994 -1.35568,-6.56792 -10.4164,-13.87936 -19.74578,-15.93364 -22.0584,-18.18163 -30.96982,-30.10433 -11.6767,-15.6224 -18.45331,-29.44479 -22.472,-45.83657 -1.75933,-7.17614 -4.48807,-15.61364 -6.06387,-18.75 -1.57579,-3.13638 -3.28031,-7.10874 -3.78783,-8.82749 -0.50751,-1.71875 -2.78427,-5.09375 -5.05947,-7.5 -6.21956,-6.5778 -9.10582,-17.98837 -10.32549,-40.82088 -0.98547,-18.44837 -1.11692,-19.10483 -5.00572,-25 -6.921821,-10.493 -8.993375,-16.1231 -10.881558,-29.57408 -2.070968,-14.75312 -3.671562,-19.97186 -5.944925,-19.38349 -0.857371,0.2219 -8.027607,2.46813 -15.933857,4.99161 -16.250131,5.18665 -47.278728,13.58564 -53.496861,14.48082 -3.57365,0.51447 -4.749787,-0.0867 -8.843081,-4.52061 C 5.5595754,317.58616 -0.00314744,306.8192 0.00954927,301.85706 0.02097956,297.38986 3.0704344,287.35476 9.3103871,271.25 c 2.5305979,-6.53125 5.4005809,-15.67098 6.3777389,-20.3105 0.977158,-4.63953 2.547765,-10.26453 3.490239,-12.5 2.079289,-4.93191 11.316882,-18.51353 19.04739,-28.0045 9.839594,-12.08036 11.597624,-15.55211 14.151014,-27.94533 2.88729,-14.01383 7.940667,-28.56207 12.344079,-35.53753 5.419641,-8.58527 15.057604,-17.79898 21.532016,-20.58419 3.372792,-1.45094 10.449746,-3.46412 15.726566,-4.47374 5.27682,-1.00962 12.75577,-3.05876 16.61989,-4.55365 3.88903,-1.50451 10.37409,-2.82591 14.52568,-2.95974 14.6577,-0.47253 26.875,-2.19551 26.875,-3.79013 0,-0.84836 -2.00264,-7.07484 -4.45031,-13.83664 -4.43118,-12.24131 -4.45129,-12.391109 -4.67754,-34.836613 -0.21351,-21.182751 -0.0459,-22.994257 2.7786,-30.033222 3.47129,-8.650786 13.9182,-19.955473 22.47576,-24.3212156 12.10245,-6.1742127 30.69639,-7.89095249 42.09075,-3.8861542 18.27195,6.4220718 26.6661,18.5778448 28.75144,41.6356548 0.6128,6.775847 1.37464,9.6875 2.53474,9.6875 3.91905,0 5.54167,9.66179 2.8968,17.24886 -0.76723,2.200867 -3.17745,4.950282 -5.58463,6.37055 -2.32917,1.374249 -4.48661,3.793949 -4.7943,5.377111 -0.67466,3.471348 -3.28844,28.301719 -3.27841,31.144379 0.004,1.23335 3.14702,3.56168 8.09565,5.99788 4.4487,2.19009 8.4194,4.51731 8.82376,5.17161 0.40438,0.65428 1.75118,1.18961 2.99289,1.18961 1.24171,0 3.72475,1.15401 5.51785,2.56447 1.79311,1.41047 7.3391,3.98955 12.32442,5.73133 11.52783,4.02757 13.83445,5.28622 13.11649,7.15721 -0.31896,0.8312 0.34054,1.56714 1.46555,1.63541 6.60998,0.40118 17.40858,3.52999 21.47825,6.22318 10.47476,6.93186 28.673,35.96352 39.45238,62.9384 3.85363,9.64354 6.1738,13.40179 12.34705,20 4.18093,4.46875 11.98952,13.59186 17.35242,20.2736 l 9.75071,12.14859 6.45734,-4.85454 c 14.79546,-11.12305 31.93215,-16.92665 47.58365,-16.11494 l 8.1424,0.42229 0.36564,-3.75 c 0.31789,-3.26021 0.91825,-3.8028 4.59659,-4.15426 3.253,-0.31082 5.85146,0.70043 11.24181,4.375 3.85597,2.6286 8.30271,6.2935 9.88164,8.14422 3.2429,3.80115 16.81276,11.00118 20.78276,11.0271 7.13065,0.0466 11.78152,4.72539 10.06699,10.12743 -0.43047,1.35626 0.25665,3.81655 1.61811,5.79387 4.21984,6.12869 5.24709,10.69793 5.55001,24.68664 0.29911,13.81262 -1.35272,26.45765 -3.65105,27.94921 -1.20749,0.78363 -3.11402,6.12876 -4.63276,12.98829 -0.56229,2.53961 -1.51613,3.4375 -3.65175,3.4375 -2.08875,0 -3.99486,1.70407 -6.87096,6.14265 -15.77773,24.34916 -49.32449,35.90722 -76.78487,26.45512 -20.54327,-7.07116 -31.69607,-16.73802 -40.88228,-35.43533 -3.3001,-6.71693 -7.49932,-13.39179 -9.33158,-14.83305 -1.83227,-1.44127 -7.25376,-8.46667 -12.04776,-15.612 -4.794,-7.14534 -12.24264,-17.62673 -16.55253,-23.29197 -9.72996,-12.78977 -17.85442,-26.35308 -29.64267,-49.48672 -5.02691,-9.86498 -9.98493,-18.2606 -11.01783,-18.65696 -1.18846,-0.45605 -3.44442,1.08098 -6.14437,4.18631 -3.7965,4.36652 -4.20759,5.5351 -3.7326,10.61037 0.60504,6.46482 7.5535,22.47663 11.17694,25.7558 4.34152,3.92903 0.5429,15.47764 -9.26293,28.16123 -4.81221,6.22446 -6.98595,16.63819 -5.01289,24.01522 1.21598,4.54642 1.12987,6.51125 -0.49427,11.27784 -2.07324,6.08461 -1.05385,9.46149 2.85619,9.46149 0.96865,0 2.08363,0.98437 2.47776,2.1875 3.59892,10.9863 4.72202,12.57566 9.41694,13.32641 5.08545,0.81319 8.53801,4.50888 8.53801,9.13923 0,2.23698 0.70052,2.84686 3.27002,2.84686 4.64258,0 15.10504,8.11465 18.14477,14.07301 3.27867,6.42673 3.40115,16.42729 0.24392,19.91598 -1.97066,2.17757 -2.2518,5.34828 -2.39854,27.05135 -0.14872,21.99717 -0.43833,25.17668 -2.75171,30.20966 -3.58624,7.80217 -6.94395,21.8447 -6.06279,25.35555 0.40324,1.60661 2.37533,5.18805 4.38242,7.95876 3.27277,4.51794 5.04968,5.51808 17.22308,9.69409 14.26849,4.89472 19.85543,7.9534 28.04952,15.35626 5.61551,5.07329 12.25467,16.38605 15.63158,26.63534 3.01684,9.15644 2.84,26.01019 -0.42178,40.19857 l -2.48824,10.82358 7.02637,6.79699 c 6.70235,6.48355 7.45872,6.86086 16.40138,8.1821 18.22781,2.69308 31.64935,8.45902 40.01137,17.18902 4.98318,5.20248 15.94027,10.54668 21.70667,10.58719 2.14882,0.0151 6.35901,1.1401 9.35596,2.5 7.1046,3.22379 9.13252,3.11941 12.676,-0.65245 3.54935,-3.7781 4.95932,-3.87504 9.09109,-0.625 4.65787,3.66389 7.19887,3.12691 14.43608,-3.05065 11.83394,-10.10126 23.54799,-8.94189 34.16654,3.38155 6.60158,7.66152 9.56901,12.89942 15.03808,26.5441 4.86656,12.1415 12.27048,20.57816 22.66316,25.82437 12.61171,6.36637 23.55827,19.36442 29.06171,34.50813 1.68248,4.62963 2.7807,9.14984 2.4405,10.04492 -0.36224,0.95312 -0.0499,1.27602 0.75375,0.7793 0.96469,-0.5962 1.1055,0.73098 0.47409,4.46828 -0.63664,3.76822 -0.49441,5.06684 0.4884,4.45942 2.25196,-1.39178 1.69868,8.79994 -0.60268,11.10128 -1.0941,1.0941 -2.11193,2.82506 -2.26186,3.84659 -0.45017,3.06722 -8.40395,10.45001 -12.83297,11.91172 -14.34852,4.73544 -42.82412,-17.27626 -60.32519,-46.63151 -1.53703,-2.57813 -3.1706,-4.68394 -3.63015,-4.6796 -0.45955,0.004 -1.77635,1.6615 -2.9262,3.68255 -1.62588,2.85772 -2.8764,3.61524 -5.625,3.40737 -4.86466,-0.36788 -5.42804,-4.79142 -1.11885,-8.78503 2.10222,-1.94828 3.2095,-4.29753 3.2095,-6.80939 0,-4.2463 -0.72806,-4.6506 -10.625,-5.90002 -3.4375,-0.43397 -8.95528,-1.71414 -12.26174,-2.84483 -4.77189,-1.63182 -5.88749,-2.53089 -5.40932,-4.35942 0.82235,-3.14467 -4.91941,-6.47278 -14.37718,-8.33348 -4.11737,-0.81005 -10.02817,-2.56245 -13.13508,-3.89424 C 476.08476,681.08964 471.90188,680 469.89636,680 c -2.0055,0 -3.64636,-0.50395 -3.64636,-1.1199 0,-0.61594 -4.64063,-1.49615 -10.3125,-1.95601 -13.05258,-1.05827 -30.55462,-3.01373 -34.9034,-3.89968 -2.88155,-0.58704 -3.24968,-0.33177 -2.67743,1.85654 0.36493,1.39544 1.44645,3.18695 2.40341,3.98116 0.95696,0.7942 1.73992,2.43373 1.73992,3.64339 0,1.20966 4.55041,7.09901 10.11204,13.08744 5.56162,5.98842 10.97076,12.94545 12.0203,15.46005 2.02342,4.84793 7.08269,11.91534 13.36457,18.66927 3.45245,3.71189 4.29253,4.02505 8.93138,3.32942 l 5.12046,-0.76787 9.05121,10.74847 c 7.99707,9.49665 16.05153,23.21292 15.34002,26.12313 -0.13855,0.56673 0.26327,0.71202 0.89295,0.32285 1.64647,-1.01757 15.49543,15.19188 19.3492,22.64717 3.08653,5.97107 2.55683,8.8223 -2.61963,14.1008 -7.61971,7.76992 -46.57295,29.22846 -61.38168,33.81389 -10.29026,3.18634 -13.44553,3.1155 -15.70775,-0.35262 z M 495,636.94877 c 0,-1.31935 -2.39889,-1.87363 -3.1124,-0.71916 -0.43182,0.69871 0.0917,1.27039 1.16363,1.27039 1.07182,0 1.94877,-0.24805 1.94877,-0.55123 z"
       id="path3422"
       inkscape:connector-curvature="0" />
    <path
       style="fill:#30a5f7"
       d="m 436.9833,839.71571 c -2.70723,-4.13174 -4.87429,-16.6262 -3.83423,-22.10662 0.46805,-2.46625 0.8174,-9.04269 0.77635,-14.6143 -0.0687,-9.33839 -0.51825,-11.07329 -5.75002,-22.19528 -3.12148,-6.63579 -5.69534,-13.04594 -5.7197,-14.24479 -0.11187,-5.50322 -7.66917,-12.7794 -13.29096,-12.79648 -3.55392,-0.0108 -6.66474,-1.24397 -6.66474,-2.64198 0,-0.61393 1.14479,-1.11626 2.54398,-1.11626 2.12781,0 2.3323,-0.39553 1.25,-2.41783 -1.81579,-3.39282 -1.61305,-5.83453 0.67438,-8.12196 1.79114,-1.79115 1.14722,-2.36187 -7.15223,-6.33928 -5.01633,-2.40402 -9.87279,-4.37093 -10.79214,-4.37093 -0.91934,0 -1.37381,-0.48173 -1.00993,-1.0705 0.36389,-0.58877 3.63145,-0.0612 7.26128,1.17236 12.06846,4.1014 9.31454,-0.99626 -9.50192,-17.5886 -7.23787,-6.38233 -13.04471,-11.95293 -12.90408,-12.37911 0.45904,-1.39124 -37.00326,-36.82045 -46.8336,-44.29192 C 315.67175,646.71516 305.47066,634.81244 297.30761,621.072 291.84085,611.87006 285.15197,605.36071 280,604.22888 c -4.23666,-0.93074 -14.5282,-4.11775 -20.625,-6.387 -30.88686,-11.49617 -37.72503,-14.87612 -45.18056,-22.33165 -6.52282,-6.52282 -12.38005,-18.11238 -13.5863,-26.88287 -0.82585,-6.0046 -1.18769,-6.44851 -12.91129,-15.84005 -15.47176,-12.39408 -20.86533,-17.80312 -29.89296,-29.97868 -9.9605,-13.43374 -16.91657,-28.18178 -21.38627,-45.34255 -2.05441,-7.88759 -5.18256,-17.10829 -6.95146,-20.49043 -1.76888,-3.38214 -3.21616,-6.79252 -3.21616,-7.57864 0,-0.7861 -1.68588,-3.04446 -3.7464,-5.01856 -7.09398,-6.79646 -11.21876,-24.70261 -11.24334,-48.80875 -0.01,-9.32908 -0.3241,-10.54783 -4.3557,-16.875 -7.456396,-11.70201 -9.298904,-16.66305 -11.188819,-30.12638 -1.891062,-13.47149 -3.635,-19.81832 -5.445548,-19.81832 -0.572927,0 -5.732739,1.71202 -11.466252,3.8045 -5.733512,2.09247 -15.263052,4.91571 -21.176755,6.27386 -5.913702,1.35815 -16.777132,4.21261 -24.140955,6.34324 -8.324191,2.40851 -14.591675,3.57197 -16.568781,3.07575 -5.562487,-1.3961 -16.93267738,-19.33614 -16.90391964,-26.67123 0.01721488,-4.39091 2.49663904,-12.54681 8.19516494,-26.95743 2.4809057,-6.27379 5.6074307,-15.92643 6.9478337,-21.45029 1.340403,-5.52387 3.081902,-11.7309 3.869998,-13.7934 1.827748,-4.78334 9.290323,-15.99967 19.128263,-28.75 11.207599,-14.52545 11.562815,-15.22885 14.231302,-28.18064 7.85083,-38.10485 23.475542,-56.99044 50.113908,-60.5727 3.78125,-0.5085 9.40625,-1.91775 12.5,-3.13168 3.09375,-1.21393 5.90625,-2.23124 6.25,-2.26069 0.34375,-0.0295 2.29581,-0.68878 4.3379,-1.46519 2.0421,-0.7764 4.8546,-1.10474 6.25,-0.72965 3.70861,0.99689 28.1621,-2.10705 28.1621,-3.57469 0,-0.68654 -1.98467,-6.99609 -4.4104,-14.021236 -4.317,-12.50251 -4.41626,-13.231333 -4.6875,-34.418254 -0.24168,-18.877776 0.0334,-22.444375 2.15112,-27.89527 7.91902,-20.382779 22.77683,-30.7042323 47.05592,-32.6889058 7.82266,-0.6394574 10.88837,-0.3020383 17.5,1.9260879 19.17929,6.4634549 26.78398,17.5759999 29.37152,42.9198809 0.67859,6.646505 1.34578,8.561767 3.18594,9.145812 1.28017,0.406312 2.67294,2.114715 3.09503,3.796449 1.15211,4.590386 -0.65774,14.221649 -3.0391,16.172885 -1.15364,0.94526 -3.47534,2.80111 -5.15934,4.124111 -2.51746,1.977801 -3.21135,3.934251 -3.90298,11.004568 -0.46263,4.729512 -1.23231,12.536612 -1.71039,17.349112 l -0.86922,8.75 4.44217,2.8125 c 2.44319,1.54688 5.21795,2.8125 6.16613,2.8125 0.94817,0 3.15416,1.125 4.90219,2.5 1.74802,1.375 3.84642,2.5 4.66311,2.5 0.81667,0 3.0257,1.09716 4.90892,2.43814 1.88324,1.34098 8.43883,4.32536 14.56797,6.63195 8.11723,3.05476 11.09897,4.75575 10.97847,6.26283 -0.091,1.13797 0.19025,1.98077 0.625,1.87289 0.43474,-0.10787 4.70335,0.51334 9.4858,1.38052 10.1244,1.83577 15.41141,5.24977 23.59734,15.23754 7.29704,8.90323 22.24921,35.77563 29.01314,52.14311 4.39271,10.62953 6.69905,14.38201 12.72004,20.69584 4.04496,4.2417 11.74592,13.19656 17.11325,19.89968 5.36732,6.70312 10.11924,12.17445 10.55982,12.1585 0.44058,-0.016 3.05105,-2.07393 5.80105,-4.57326 10.94691,-9.94912 33.80871,-17.62624 48.78979,-16.38389 l 6.70887,0.55635 0.37567,-3.8476 c 0.32792,-3.35854 0.90705,-3.89851 4.5562,-4.2481 4.7227,-0.45244 10.80598,3.0555 20.12986,11.60791 6.96442,6.38818 17.44942,11.91759 22.59842,11.91759 2.41843,0 4.98142,1.15159 6.95468,3.12485 2.56016,2.56017 2.98138,3.8896 2.33092,7.35685 -0.48291,2.57414 -0.25327,4.56614 0.58619,5.08496 0.75907,0.46913 2.46248,2.97454 3.78534,5.56756 4.18875,8.21064 3.78274,41.10645 -0.57226,46.36578 -1.51748,1.83257 -3.37908,7.1695 -4.90523,14.0625 -0.56952,2.5723 -1.50884,3.4375 -3.73196,3.4375 -2.192,0 -4.00931,1.61827 -6.93183,6.17261 -12.1343,18.90966 -39.34155,31.9039 -61.95023,29.58758 -24.96484,-2.55773 -45.5371,-16.99635 -55.82734,-39.18238 -2.94896,-6.35805 -6.61403,-12.19055 -8.73661,-13.90327 -2.01109,-1.62277 -7.10042,-8.09152 -11.3096,-14.375 -4.2092,-6.2835 -11.99137,-17.33079 -17.2937,-24.54954 -11.12567,-15.14679 -18.60958,-27.63454 -30.60398,-51.06611 -4.69921,-9.1801 -9.38347,-17.01324 -10.40949,-17.40695 -1.17276,-0.45003 -3.44972,1.10626 -6.13186,4.19111 -3.7965,4.36652 -4.20759,5.5351 -3.7326,10.61037 0.60504,6.46482 7.5535,22.47663 11.17694,25.7558 4.42102,4.00097 0.715,14.97158 -9.77206,28.92735 -4.77703,6.35708 -6.61653,16.44615 -4.36733,23.95333 1.12923,3.76899 1.03258,5.78542 -0.48321,10.08162 -2.15775,6.1157 -1.46853,9.95348 1.78751,9.95348 1.55429,0 3.1136,2.23051 5.1586,7.37907 2.72083,6.85003 3.26714,7.43283 7.61996,8.12887 5.12363,0.8193 8.57534,4.5004 8.57534,9.1452 0,2.23698 0.70053,2.84686 3.27003,2.84686 4.63337,0 15.10273,8.11014 18.13035,14.04477 3.19327,6.25932 3.32895,14.92055 0.30472,19.45315 -1.95677,2.93278 -2.26752,6.4195 -2.3619,26.50208 -0.0988,21.00667 -0.37306,23.81202 -2.995,30.625 -3.38227,8.78866 -6.2535,19.94594 -6.27269,24.375 -0.007,1.71875 1.88235,5.70816 4.19955,8.86535 3.91998,5.34099 5.15709,6.06419 17.78152,10.39491 24.57647,8.4308 34.08605,17.18793 42.56077,39.1931 4.11521,10.68543 4.37654,26.79336 0.69611,42.9073 l -2.45203,10.73565 6.6928,7.07685 c 3.68103,3.89226 7.39658,7.08798 8.25678,7.1016 0.86019,0.0136 5.36762,0.57479 10.01649,1.24704 16.40005,2.37154 31.65273,9.34542 39.6725,18.13922 3.73088,4.09095 14.90058,9.33898 19.87675,9.33898 1.9555,0 6.02321,1.0916 9.03936,2.42579 6.18999,2.73812 16.99047,3.29772 14.89404,0.7717 -0.84579,-1.01913 -0.7747,-1.98294 0.21959,-2.97723 2.03304,-2.03304 3.5883,-1.81122 7.22026,1.02974 4.74828,3.71415 8.06015,3.03857 14.90473,-3.04038 11.20061,-9.94773 23.65393,-8.91743 33.48302,2.77015 6.88298,8.18442 11.8711,16.38759 12.06974,19.84918 0.0921,1.60561 0.64956,2.91969 1.23875,2.92016 0.58917,4.9e-4 0.7614,0.8083 0.38272,1.79513 -0.37868,0.98683 -0.29825,1.97121 0.17877,2.1875 0.477,0.2163 2.23933,3.11842 3.9163,6.44918 3.89357,7.73337 12.43923,15.94917 21.79543,20.95417 12.6269,6.75461 21.61733,17.58085 27.49429,33.1085 1.99585,5.27328 3.00286,9.79043 2.48401,11.14255 -0.58023,1.51207 -0.40742,1.98647 0.51578,1.41591 0.96841,-0.59851 1.1627,0.53257 0.64232,3.73929 -0.58191,3.5859 -0.3877,4.37589 0.88273,3.59071 1.2789,-0.7904 1.49111,0.21461 0.98794,4.67872 -0.35245,3.12695 -1.2886,6.44562 -2.08033,7.3748 -0.79172,0.92919 -2.69539,3.60646 -4.23035,5.94949 -8.25206,12.59629 -19.273,12.41009 -37.79085,-0.63847 -10.63729,-7.49554 -23.02756,-20.75848 -29.94972,-32.05909 -3.26372,-5.32813 -6.29769,-9.68394 -6.74217,-9.6796 -0.44446,0.004 -1.74891,1.6615 -2.89876,3.68255 -1.62587,2.85772 -2.8764,3.61524 -5.625,3.40738 -5.03057,-0.38043 -5.31427,-4.58017 -0.63291,-9.36913 2.7106,-2.7729 3.51007,-4.58974 3.05869,-6.95099 -0.67068,-3.50846 -1.7315,-4.00927 -10.96013,-5.17433 -3.4375,-0.43397 -8.95527,-1.71414 -12.26174,-2.84483 -4.6803,-1.6005 -5.88272,-2.54913 -5.42923,-4.28327 0.90102,-3.44552 -4.5141,-6.80844 -13.47637,-8.36915 -4.4156,-0.76894 -10.45932,-2.50129 -13.43051,-3.84965 -2.97119,-1.34837 -6.83652,-2.46393 -8.58965,-2.47903 -1.75312,-0.0151 -3.72187,-0.5314 -4.375,-1.14735 -0.65312,-0.61594 -10.75,-2.03711 -22.4375,-3.15815 -11.6875,-1.12105 -22.47751,-2.36024 -23.97781,-2.75375 -2.27923,-0.59782 -2.61674,-0.29077 -2.05241,1.86721 0.37146,1.42048 1.45835,3.23249 2.4153,4.0267 0.95696,0.7942 1.73992,2.36364 1.73992,3.48764 0,1.91539 8.77391,12.70985 16.64218,20.47471 1.92246,1.89722 4.37357,5.55347 5.44691,8.125 2.0656,4.94888 7.09114,11.9821 13.43114,18.79685 3.40985,3.66519 4.34911,4.03433 8.4866,3.3353 4.92866,-0.8327 5.73716,-0.30216 13.49317,8.85418 8.2183,9.70209 11.3362,14.45082 13.78456,20.99466 1.46089,3.90458 3.08662,6.83319 3.61274,6.50803 1.76421,-1.09035 16.90118,17.33175 20.15718,24.53185 3.65942,8.09218 -2.81493,14.41158 -30.0093,29.29111 -21.41525,11.71746 -34.47265,17.40791 -42.74677,18.62916 -5.26756,0.77749 -6.01737,0.56883 -7.81511,-2.17489 z"
       id="path3420"
       inkscape:connector-curvature="0" />
    <path
       style="fill:#0095fd"
       d="m 439.23691,841.58899 c -4.02702,-2.79668 -5.977,-9.82878 -5.89625,-21.26344 0.0489,-6.91661 0.67307,-12.26216 1.55615,-13.32621 1.00675,-1.21307 1.05874,-2.03378 0.16389,-2.58683 -0.72089,-0.44552 -1.3107,-3.2953 -1.3107,-6.33282 0,-3.71678 -1.4077,-8.46959 -4.30478,-14.53422 -2.36763,-4.95628 -4.02193,-9.4691 -3.67623,-10.02846 0.34571,-0.55935 -0.0274,-1.01701 -0.82895,-1.01701 -0.80369,0 -1.12358,-0.87023 -0.71309,-1.93993 0.4725,-1.23132 0.23584,-1.6256 -0.64794,-1.0794 -0.95606,0.59088 -1.22926,-0.53656 -0.87185,-3.59802 0.28628,-2.4522 0.21616,-4.37365 -0.15582,-4.26989 -0.37199,0.10375 -2.62983,-1.62292 -5.01742,-3.83706 -2.65793,-2.46484 -5.6474,-4.0257 -7.71026,-4.0257 -4.1403,0 -7.32366,-1.1448 -7.32366,-2.63374 0,-0.61393 1.07614,-1.11626 2.39143,-1.11626 2.12931,0 2.23887,-0.40414 0.99958,-3.68737 -1.15321,-3.05523 -1.02061,-4.09758 0.77353,-6.08007 2.06582,-2.28272 2.03425,-2.47757 -0.68709,-4.23958 -1.56885,-1.0158 -6.36592,-3.25068 -10.66018,-4.96639 -4.29424,-1.71572 -7.48273,-3.44445 -7.08554,-3.84165 0.3972,-0.3972 2.50442,0.006 4.68272,0.89671 7.90139,3.2297 9.58555,3.46684 9.58555,1.34965 0,-2.6598 -8.28294,-11.49529 -20.21961,-21.56845 -8.29599,-7.00085 -9.53484,-8.53478 -8.21256,-10.16864 1.06735,-1.31886 1.09503,-1.64697 0.088,-1.04309 -0.89455,0.53645 -8.22768,-5.65805 -18.75,-15.83867 -9.50444,-9.19584 -21.49958,-20.06935 -26.65583,-24.16337 -12.96601,-10.29492 -23.27516,-21.92649 -30.99967,-34.97618 -4.883,-8.24929 -7.93065,-11.94006 -11.96927,-14.49509 -2.98001,-1.8853 -5.92172,-3.41966 -6.53714,-3.4097 -1.57421,0.0255 -17.85737,-5.04648 -22.36892,-6.9676 -2.0625,-0.87825 -8.98416,-3.56155 -15.38148,-5.9629 -15.78418,-5.92486 -24.63268,-11.46997 -30.25918,-18.96261 -6.59381,-8.78076 -8.34545,-12.70227 -9.38297,-21.00626 l -0.90628,-7.25366 -14.53505,-12.05209 c -21.11575,-17.50866 -28.85679,-26.71124 -39.59188,-47.06701 -4.62677,-8.77324 -7.64216,-16.62238 -9.8908,-25.74598 -4.00137,-16.23519 -8.87455,-27.26908 -16.48083,-37.31603 -5.91952,-7.81895 -9.05191,-24.35432 -9.16191,-48.36427 -0.0296,-6.45099 -0.66977,-8.55209 -4.38006,-14.375 -7.327057,-11.49904 -9.180928,-16.38299 -10.654816,-28.0697 -0.780345,-6.1875 -2.246859,-13.85303 -3.258919,-17.0345 l -1.840109,-5.78451 -9.031845,3.50707 c -4.967513,1.9289 -17.17955,5.54819 -27.137857,8.04288 -9.958308,2.49467 -21.68089,5.6289 -26.050183,6.96492 -4.369292,1.33603 -8.953667,2.42914 -10.1875,2.42914 -5.404267,0 -18.75917937,-19.28745 -18.72980064,-27.04998 0.01707133,-4.51062 2.45310194,-12.56061 8.19516494,-27.08133 2.4809057,-6.27379 5.6074307,-15.92643 6.9478337,-21.45029 1.340404,-5.52388 3.083285,-11.7309 3.87307,-13.7934 1.908206,-4.98321 11.191251,-18.6849 21.903184,-32.32888 8.529957,-10.86476 8.751981,-11.33586 11.48779,-24.375 5.997676,-28.58555 17.372175,-47.93215 32.902627,-55.96326 4.324631,-2.23635 26.88517,-7.03564 28.4697,-6.05634 0.5794,0.35808 1.52337,-0.18865 2.09772,-1.21495 0.57435,-1.02631 2.1558,-2.03879 3.51433,-2.24996 1.35853,-0.21116 3.13722,-0.80051 3.95264,-1.30966 0.81543,-0.50915 6.15917,-1.1773 11.875,-1.48478 13.25763,-0.7132 23.91427,-1.87237 24.73213,-2.69023 0.3511,-0.3511 -1.27095,-6.0808 -3.60456,-12.732656 -3.59536,-10.248407 -4.42695,-14.790728 -5.4486,-29.761525 -1.34107,-19.651567 0.27213,-32.22933 5.40788,-42.164033 3.53112,-6.830681 5.44552,-8.916862 14.0212,-15.27929 9.25952,-6.8698001 18.48171,-9.6180724 32.78436,-9.7699635 10.1114,-0.1073812 12.07316,0.2706348 19.38334,3.7350184 16.52042,7.8292371 23.466,19.9193781 24.123,41.9907921 0.16197,5.441492 0.71346,8.009836 1.64498,7.660883 2.38829,-0.894662 5.47403,3.350419 5.4667,7.52062 -0.0128,7.247517 -2.25865,12.670748 -6.21531,15.008002 -4.9378,2.916833 -5.80704,4.837915 -6.74304,14.902712 -0.43157,4.640625 -1.10495,11.95313 -1.49638,16.25 l -0.71172,7.8125 4.44419,2.8125 c 2.4443,1.54688 5.21996,2.8125 6.16814,2.8125 0.94817,0 3.06544,0.98438 4.70502,2.1875 4.26368,3.12867 15.23119,8.45771 26.10608,12.68477 6.83449,2.65655 9.27424,4.18918 9.00316,5.65567 -0.20451,1.10638 0.0768,1.9064 0.625,1.77778 2.04423,-0.47951 13.64983,1.81432 17.87184,3.53234 5.9362,2.41556 14.21436,10.60848 20.62432,20.41194 7.31655,11.19 19.51162,34.60384 25.06585,48.125 4.04949,9.85802 5.9559,12.64666 15.40774,22.53784 5.93257,6.2083 13.31561,14.77004 16.40678,19.02606 3.09117,4.25602 6.0124,7.75463 6.49161,7.77466 0.47922,0.02 4.41673,-2.64663 8.75,-5.92593 13.55234,-10.25604 29.36864,-15.43017 45.25518,-14.80474 l 8.87352,0.34932 0,-3.8536 c 0,-3.69901 0.20731,-3.84971 5.16728,-3.75646 5.61953,0.10563 9.65771,2.56383 18.62023,11.33471 2.91229,2.85003 6.58781,5.59217 8.16782,6.09363 1.57999,0.50147 4.59891,1.96441 6.70869,3.25097 2.10979,1.28655 5.53894,2.3413 7.62034,2.34386 6.30688,0.008 9.34064,3.05329 9.34064,9.37679 0,3.01419 0.57054,5.83297 1.26786,6.26393 0.69733,0.43097 2.34535,2.89562 3.66228,5.47702 1.84523,3.61695 2.46795,7.82629 2.71506,18.35269 0.36318,15.47039 -0.7049,23.22406 -3.94784,28.65925 -1.2306,2.0625 -2.63927,6 -3.1304,8.75 -1.08212,6.05934 -2.7519,8.38571 -5.43093,7.56651 -1.40414,-0.42935 -3.1427,1.30488 -5.76103,5.74664 -7.66149,12.99706 -23.68017,24.06825 -41.37001,28.59255 -11.47813,2.9356 -16.94976,3.04659 -28.59413,0.58 -21.09242,-4.46794 -38.23361,-17.35736 -47.37018,-35.62031 C 379.5433,339.99844 377.5,335.2127 377.5,334.35541 c 0,-0.85727 -1.96759,-3.05944 -4.37241,-4.89369 -2.40483,-1.83425 -7.54625,-8.15443 -11.4254,-14.04486 -3.87915,-5.89042 -11.30843,-16.40956 -16.50951,-23.37586 -11.56693,-15.49266 -20.39269,-30.01321 -30.80565,-50.68291 -4.35932,-8.6532 -8.71948,-16.7864 -9.68927,-18.07378 -2.39391,-3.17788 -5.87727,-1.84969 -9.38526,3.57857 -3.0254,4.68151 -3.55642,9.76771 -1.56627,15.00218 0.96352,2.53428 0.89263,3.05992 -0.3125,2.31721 -0.8573,-0.52832 -0.50107,0.65659 0.79163,2.63315 1.29269,1.97655 3.497,5.61104 4.89847,8.07665 1.40146,2.46562 3.61575,5.68417 4.92062,7.15235 4.11246,4.62714 0.48734,15.1627 -10.26425,29.83058 -2.70327,3.68795 -3.95209,7.21409 -4.75901,13.4375 -0.6017,4.64062 -0.6886,8.4375 -0.19311,8.4375 2.04013,0 2.25643,6.29035 0.40332,11.72894 -2.25011,6.60371 -1.66942,9.52106 1.89514,9.52106 1.48054,0 2.76585,1.11635 3.23815,2.8125 1.87335,6.7277 5.11277,12.15947 7.25989,12.17316 4.88277,0.0311 9.49333,3.6641 10.33347,8.14245 0.62065,3.30834 1.44391,4.37189 3.38413,4.37189 4.34795,0 14.54022,7.47915 17.82076,13.07698 3.78292,6.45506 4.20066,16.04137 0.90236,20.70738 -1.8753,2.65294 -2.21275,6.45413 -2.38282,26.84064 -0.17568,21.05949 -0.4938,24.43249 -2.80818,29.77451 -2.82711,6.52553 -6.3743,20.50622 -6.3743,25.1233 0,1.57723 1.95635,5.42984 4.34744,8.56135 3.672,4.80908 5.66261,6.1208 12.8125,8.44293 23.6034,7.66585 34.73446,15.78902 42.75169,31.19915 9.63251,18.51491 10.2554,28.01749 3.87644,59.13861 -0.92564,4.51599 -0.6676,5.05616 5.46373,11.43739 6.01245,6.25748 6.92599,6.75148 13.90424,7.51873 9.86112,1.08423 27.3067,6.38772 32.95693,10.01898 2.48162,1.59486 6.76203,5.00737 9.51203,7.58334 5.97721,5.59896 16.00314,10.54761 21.4036,10.5645 2.14699,0.006 6.37136,1.10381 9.38751,2.438 3.01614,1.33418 7.79915,2.39383 10.62889,2.35478 4.26249,-0.0589 5.0471,-0.44538 4.57422,-2.25365 -0.83563,-3.19548 3.66279,-3.90146 7.25614,-1.13876 4.90475,3.77098 9.1758,2.99253 14.60996,-2.66282 11.332,-11.79323 24.69664,-9.57359 36.16493,6.00638 8.6483,11.74897 8.15342,10.70944 8.94022,18.77955 0.0878,0.89995 0.71559,1.2926 1.39522,0.87258 0.70857,-0.43793 0.91812,0.0639 0.49126,1.17622 -0.40944,1.06697 -0.1394,1.93993 0.60009,1.93993 0.73947,0 1.02072,0.84375 0.625,1.875 -0.39574,1.03125 -0.0636,1.875 0.738,1.875 0.80162,0 1.10986,0.5625 0.68496,1.25 -0.4249,0.6875 -0.30476,1.25 0.26697,1.25 0.57174,0 2.12113,2.00841 3.44308,4.46315 2.93881,5.45702 11.633,12.869 20.11279,17.14657 7.58098,3.82417 12.11638,7.94835 18.90901,17.19459 4.73859,6.45023 11.55551,22.25384 11.34274,26.29579 -0.29202,5.54751 0.44525,9.95794 1.55041,9.2749 0.72724,-0.44945 1.25,0.79576 1.25,2.97746 0,2.0625 -0.60085,4.12134 -1.33521,4.5752 -0.73438,0.45388 -1.02207,1.64129 -0.63933,2.6387 0.38275,0.99741 0.19985,1.5069 -0.40644,1.1322 -0.60628,-0.37471 -1.45172,0.71076 -1.87875,2.41215 -1.19086,4.74481 -7.96198,11.69494 -12.65655,12.99118 -7.75607,2.14155 -18.12511,-2.00812 -31.4945,-12.604 C 565.18041,747.68721 552.5,734.12773 552.5,731.66199 552.5,730.74789 551.9043,730 551.17623,730 c -0.72808,0 -1.01256,-0.50356 -0.63218,-1.11902 0.38038,-0.61545 -0.20729,-1.46396 -1.30592,-1.88553 -1.27703,-0.49005 -1.70148,-1.53799 -1.17676,-2.90539 0.45142,-1.17637 0.41805,-1.73615 -0.0741,-1.24395 -0.4922,0.4922 -1.91991,-0.79057 -3.1727,-2.8506 -2.82289,-4.64187 -4.21575,-4.71019 -6.3246,-0.31022 -1.66671,3.47747 -5.18359,4.49627 -8.17742,2.36888 -2.46689,-1.75292 -1.85133,-4.17251 2.08628,-8.20062 2.66948,-2.73085 3.45375,-4.50374 2.92214,-6.6056 -0.95619,-3.78056 -2.13121,-4.43475 -9.63615,-5.3649 -3.47037,-0.43011 -9.3015,-1.6814 -12.95806,-2.78063 -5.78386,-1.73875 -6.56084,-2.34707 -5.97568,-4.67856 0.87808,-3.4985 -3.59063,-6.15824 -13.62603,-8.11014 -4.125,-0.80231 -10.13553,-2.55111 -13.35673,-3.88623 C 476.5471,681.09237 472.58148,680 470.9558,680 c -1.62567,0 -3.50801,-0.55224 -4.18297,-1.2272 -1.3526,-1.3526 -5.58942,-1.94444 -22.3978,-3.12871 -6.1875,-0.43595 -14.59204,-1.3078 -18.67677,-1.93744 -4.08471,-0.62964 -7.6214,-0.95015 -7.8593,-0.71226 -0.73451,0.73452 2.49852,7.00561 3.61172,7.00561 0.57713,0 1.04934,0.92176 1.04934,2.04835 0,2.20817 11.41605,16.73973 16.86164,21.46327 1.83033,1.58764 4.18456,4.93697 5.23163,7.44295 1.79118,4.28692 10.49327,16.45339 14.971,20.93113 1.45261,1.4526 3.30567,1.82276 6.54361,1.30712 2.48441,-0.39564 5.10331,-0.29151 5.81975,0.23142 4.74154,3.46077 17.51394,20.60041 20.75814,27.85591 2.12054,4.74251 4.43218,8.50397 5.13697,8.3588 3.00339,-0.61864 20.92724,23.90144 20.92724,28.62878 0,6.43781 -10.72203,14.28955 -41.25,30.20738 -21.19734,11.05268 -34.61123,15.65002 -38.26309,13.11388 z"
       id="path3418"
       inkscape:connector-curvature="0" />
  </g>
</svg>
